# xmcd
#
# Track frame offsets:
# 150
# 31076
# 68511
# 95609
# 132602
# 162048
# 191586
# 225483
# 261625
#
# Disc length: 3908 seconds
#
#
# Revision: 0
# Processed by: cddbd v1.5.2PL0 Copyright (c) Steve Scherf et al.
# Submitted via: FreeRIP 2.96 
#
DISCID=750f4209
DTITLE=Andreas Eschbach - Eine Billion Dollar CD2v4
DYEAR=2003
DGENRE=Speech
TTITLE0=09 Eine Billion Dollar
TTITLE1=10 Eine Billion Dollar
TTITLE2=11 Eine Billion Dollar
TTITLE3=12 Eine Billion Dollar
TTITLE4=13 Eine Billion Dollar
TTITLE5=14 Eine Billion Dollar
TTITLE6=15 Eine Billion Dollar
TTITLE7=16 Eine Billion Dollar
TTITLE8=17 Eine Billion Dollar
EXTD=gelesen von Andreas Pietschmann
EXTT0=
EXTT1=
EXTT2=
EXTT3=
EXTT4=
EXTT5=
EXTT6=
EXTT7=
EXTT8=
PLAYORDER=
